<?xml version="1.0" encoding="UTF-8" standalone="no"?>
<!-- Generator: Adobe Illustrator 18.1.1, SVG Export Plug-In . SVG Version: 6.00 Build 0)  -->

<svg
   xmlns:dc="http://purl.org/dc/elements/1.1/"
   xmlns:cc="http://creativecommons.org/ns#"
   xmlns:rdf="http://www.w3.org/1999/02/22-rdf-syntax-ns#"
   xmlns:svg="http://www.w3.org/2000/svg"
   xmlns="http://www.w3.org/2000/svg"
   xmlns:sodipodi="http://sodipodi.sourceforge.net/DTD/sodipodi-0.dtd"
   xmlns:inkscape="http://www.inkscape.org/namespaces/inkscape"
   version="1.1"
   id="WDR_x5F_Logo"
   x="0px"
   y="0px"
   viewBox="486.1 404.3 117.2 34.099998"
   enable-background="new 486.1 404.3 117 34"
   xml:space="preserve"
   inkscape:version="0.91 r13725"
   sodipodi:docname="wdr_logo.svg"
   width="117.2px"
   height="34.099998px">
   viewBox="0 0 117.2 34.099998"
   <metadata
     id="metadata9"><rdf:RDF><cc:Work
         rdf:about=""><dc:format>image/svg+xml</dc:format><dc:type
           rdf:resource="http://purl.org/dc/dcmitype/StillImage" /><dc:title></dc:title></cc:Work></rdf:RDF></metadata><defs
     id="defs7" /><sodipodi:namedview
     pagecolor="#ffffff"
     bordercolor="#666666"
     borderopacity="1"
     objecttolerance="10"
     gridtolerance="10"
     guidetolerance="10"
     inkscape:pageopacity="0"
     inkscape:pageshadow="2"
     inkscape:window-width="1920"
     inkscape:window-height="1138"
     id="namedview5"
     showgrid="false"
     fit-margin-top="0"
     fit-margin-left="0"
     fit-margin-right="0"
     fit-margin-bottom="0"
     inkscape:zoom="2.991453"
     inkscape:cx="76.919714"
     inkscape:cy="17.100012"
     inkscape:window-x="-8"
     inkscape:window-y="-8"
     inkscape:window-maximized="1"
     inkscape:current-layer="WDR_x5F_Logo" /><path
     d="m 590.60001,412.39999 2.6,-1 0,6 5.3,-1.9 0,-8 -8,2.9 0,2 z m 4.8,-8.1 c -4.4,0 -7.9,3.6 -7.9,8 0,4.4 3.6,8 7.9,8 4.4,0 7.9,-3.6 7.9,-8 0,-4.4 -3.5,-8 -7.9,-8 z m 0,14.8 c -3.7,0 -6.8,-3 -6.8,-6.8 0,-3.8 3,-6.8 6.8,-6.8 3.7,0 6.8,3 6.8,6.8 0,3.8 -3.1,6.8 -6.8,6.8 z m -17.8,6.3 0,0 c 2.9,-1.1 6,-3.6 6,-8.6 0,-6.2 -4.5,-9.4 -12.4,-9.4 l -13.4,0 0,10.7 -0.1,0 c -1.6,-6.5 -7.1,-10.7 -17.1,-10.7 l -18.9,0 -2.9,12.6 c -0.6,2.6 -1.1,5.9 -1.1,5.9 l -0.1,0 c 0,0 -0.7,-3.7 -1.3,-6.3 l -2.5,-12.3 -10.4,0 -2.5,12.3 c -0.6,2.6 -1.3,6.3 -1.3,6.3 l -0.1,0 c 0,0 -0.5,-3.3 -1.1,-5.9 l -2.9,-12.6 -9.4,0 8.3,31 9.4,0 4.7,-19.9 0.1,0 4.7,19.9 9.3,0 6.9,-25.7 0.1,0 0,25.7 10.6,0 c 10.1,0 15.7,-4.6 17.4,-11.3 l 0.1,0 0,11.3 8.6,0 0,-10.9 0.7,0 c 1,0 3.4,-0.1 4.8,2.1 l 5.3,8.8 9.2,0 -4.8,-8 c -1.6,-2.8 -2.9,-4.3 -3.9,-5 z m -36.5,5.9 -2.6,0 0,-16.9 2.4,0 c 5.7,0 8.2,2.5 8.2,8.3 0,5.6 -2.6,8.6 -8,8.6 z m 30,-10.5 -4.7,0 0,-6.9 4.4,0 c 2.9,0 4.1,1.2 4.1,3.5 0,2.1 -1.2,3.4 -3.8,3.4 z"
     id="path3"
     inkscape:connector-curvature="0"
     style="fill:#ffffff" /></svg>